<svg id="Layer_1" data-name="Layer 1" xmlns="http://www.w3.org/2000/svg" viewBox="0 0 85 44.8">
  <title>cisco</title>
  <g fill="#049FD9">
    <g>
      <rect x="24.04" y="29.77" width="3.73" height="14.77"/>
      <path d="M57.82,34a6.51,6.51,0,0,0-3.14-.79,3.94,3.94,0,1,0,0,7.88,6.58,6.58,0,0,0,3.14-.78v4a11.9,11.9,0,0,1-3.4.53c-4.19,0-7.87-2.89-7.87-7.65a7.53,7.53,0,0,1,7.87-7.64,11.39,11.39,0,0,1,3.4.53Z"/>
      <path d="M18.92,34a6.47,6.47,0,0,0-3.13-.79,3.94,3.94,0,1,0,0,7.88,6.54,6.54,0,0,0,3.13-.78v4a11.82,11.82,0,0,1-3.4.53c-4.19,0-7.86-2.89-7.86-7.65a7.53,7.53,0,0,1,7.86-7.64,11.35,11.35,0,0,1,3.4.53Z"/>
      <path d="M77.35,37.15a7.8,7.8,0,1,1-7.81-7.64A7.58,7.58,0,0,1,77.35,37.15Zm-7.81-3.88a3.89,3.89,0,1,0,3.86,3.88A3.82,3.82,0,0,0,69.54,33.27Z"/>
      <path d="M41.9,33.12A12.78,12.78,0,0,0,39,32.67c-1.49,0-2.31.5-2.31,1.21,0,.9,1.1,1.21,1.71,1.41l1,.33c2.42.77,3.52,2.43,3.52,4.23,0,3.71-3.26,5-6.11,5a22.23,22.23,0,0,1-4-.4V41a14,14,0,0,0,3.52.55c1.85,0,2.71-.54,2.71-1.38S38.29,39,37.37,38.7l-.8-.26c-2.08-.66-3.81-1.88-3.81-4.32,0-2.76,2.07-4.62,5.5-4.62A15.91,15.91,0,0,1,41.9,30Z"/>
    </g>
    <path d="M3.7,13.89a1.85,1.85,0,0,0-3.7,0v3.88a1.85,1.85,0,0,0,3.7,0Z"/>
    <path d="M13.86,8.81a1.85,1.85,0,0,0-3.7,0v9a1.85,1.85,0,0,0,3.7,0Z"/>
    <path d="M24,1.84a1.85,1.85,0,0,0-3.7,0V21.46a1.85,1.85,0,0,0,3.7,0Z"/>
    <path d="M34.19,8.81a1.85,1.85,0,0,0-3.7,0v9a1.85,1.85,0,0,0,3.7,0Z"/>
    <path d="M44.34,13.89a1.84,1.84,0,0,0-3.69,0v3.88a1.84,1.84,0,1,0,3.69,0Z"/>
    <path d="M54.51,8.81a1.84,1.84,0,0,0-3.69,0v9a1.84,1.84,0,1,0,3.69,0Z"/>
    <path d="M64.68,1.84a1.84,1.84,0,0,0-3.69,0V21.46a1.84,1.84,0,1,0,3.69,0Z"/>
    <path d="M74.85,8.81a1.86,1.86,0,0,0-3.71,0v9a1.86,1.86,0,0,0,3.71,0Z"/>
    <path d="M85,13.89a1.85,1.85,0,0,0-3.69,0v3.88a1.85,1.85,0,1,0,3.69,0Z"/>
  </g>
</svg>
